# xmcd CD database file
#
# Track frame offsets:
#	150
#	24795
#	39588
#	59018
#	78530
#	99341
#	124971
#	145464
#	166457
#	188218
#	209676
#	227485
#	244501
#	258675
#	276847
#	303191
#
# Disc length: 4268 seconds
#
# Revision: 0
# Processed by: cddbd v1.5.2PL0 Copyright (c) Steve Scherf et al.
# Submitted via: CDex 1.70beta2
#
DISCID=e410aa10
DTITLE=Larry Goshorn - Marco Sastre - Shades of Blue - Shades of Blue
DYEAR=1998
DGENRE=Blues
TTITLE0=Pack It Up
TTITLE1=Wild About My Lovin'
TTITLE2=Let Me Go Home Whiskey
TTITLE3=Ida Bea
TTITLE4=Goin' Down
TTITLE5=Down Home Blues
TTITLE6=Backdoor Man
TTITLE7=Statesboro Blues
TTITLE8=Troublin' Mind
TTITLE9=Sweet Little Angel
TTITLE10=All Your Love
TTITLE11=Next Time You See Me
TTITLE12=Double Bogey Man
TTITLE13=I Play Dirty
TTITLE14=Let's Go Get Stoned
TTITLE15=In Your Own Sweet Way
EXTD=YEAR: 1998
EXTT0=
EXTT1=
EXTT2=
EXTT3=
EXTT4=
EXTT5=
EXTT6=
EXTT7=
EXTT8=
EXTT9=
EXTT10=
EXTT11=
EXTT12=
EXTT13=
EXTT14=
EXTT15=
PLAYORDER=
